# xmcd
#
# Track frame offsets:
#	150
#	14484
#	25895
#	40775
#	53899
#	68695
#	82137
#	97621
#	112955
#	129034
#
# Disc length: 1926 seconds
#
# Revision: 0
# Processed by: cddbd v1.5.2PL0 Copyright (c) Steve Scherf et al.
# Submitted via: EasyCDDAExtractor 16.0.6.1
#
DISCID=7007840a
DTITLE=Τσαουσάκης Πρόδρομος - Παίζουν μπουζούκια κι οι μπαγλαμάδες-Π. Τσαουσάκ
DTITLE=ης
DYEAR=2006
DGENRE=Ρεμπέτικη
TTITLE0=Τσαουσάκης Πρόδρομος - Γλεντάει ο Μάνθος [ζεϊμπ., Σ. Χρυσίνη-Κ. Πολίτη
TTITLE0=]
TTITLE1=Τσαουσάκης Πρόδρομος-Στεφάνου Α. - Όλοι μπατήρια [ζεϊμπ., Ελ. Τσαγκάρη
TTITLE1=Π. Τσαουσάκη]
TTITLE2=Τσαουσάκης Πρόδρομος - Μέσ' στου Μιστόκλη το τσαρδί [απτ., Ά. Πάνου-Κ.
TTITLE2=Σιμόπουλου]
TTITLE3=Τσαουσάκης Πρόδρομος - Το τεμπελχανείο [χσέρβ., Ελ. Τσαγκάρη-Π. Τσαουσ
TTITLE3=άκη]
TTITLE4=Τσαουσάκης Πρόδρομος - Τι σού κάνω και θυμώνεις [ζεϊμπ., Γ. Μουφλουζέλ
TTITLE4=η-Π. Τσαουσάκη]
TTITLE5=Τσαουσάκης Πρόδρομος - Μού στείλαν μιά γαρυφαλιά [καμ., Γ. Μουφλουζέλη
TTITLE5=Π. Τσαουσάκη]
TTITLE6=Τσαουσάκης Πρόδρομος - Καλογεράκι θα γενώ [απτ., Δ. Μαγνήσαλη-Ζ. Κασιμ
TTITLE6=άτη]
TTITLE7=Τσαουσάκης Πρόδρομος--Στεφάνου Α. - Καράβι τεξιδεύει [μπάλ., Γ. Μουφλο
TTITLE7=υζέλη-Π. Τσαουσάκη]
TTITLE8=Τσαουσάκης Πρόδρομος-Αλιφραγκή Ανθούλα - Δεν υπάρχει πιά φιλία [ζεϊμπ.
TTITLE8=, Θόδ. Πολυκανδριώτη]
TTITLE9=Τσαουσάκης Πρόδρομος - Το μπαγλαμά μου έσπασα [καμ., Δ. Ευσταθίου]
EXTD=
EXTT0=
EXTT1=
EXTT2=
EXTT3=
EXTT4=
EXTT5=
EXTT6=
EXTT7=
EXTT8=
EXTT9=
PLAYORDER=
